<svg id="Layer_1" data-name="Layer 1" xmlns="http://www.w3.org/2000/svg" viewBox="0 0 992.12 233.06"><defs><style>.cls-1{fill:#fff;}</style></defs><title>header-logo2</title><g id="TTU_DblT_fl1CBWrvs"><g id="Double_T_BWrvs_1C" data-name="Double T_BWrvs_1C"><path class="cls-1" d="M90.34,191.69h-14v13l6.15-6.58H96.73V86.59l-6.39,6.19v98.91Z"/><polygon class="cls-1" points="44.48 86.59 96.73 86.59 149.94 86.59 156.21 80.27 37.52 80.27 37.52 102.43 44.48 95.81 44.48 86.59"/><polygon class="cls-1" points="142.84 102.47 149.94 95.81 149.94 86.59 142.84 92.99 142.84 102.47"/><polygon class="cls-1" points="117.86 191.61 103.37 191.61 96.73 198.11 111.61 198.11 117.86 191.61"/><path class="cls-1" d="M185.35,8.22H8.62c0,4.23,0,41.25,0,51.09L24,44V24H169Z"/><path class="cls-1" d="M193.24,67.55V0H0V67.55H48.6v-18H68.45V72.64H30V110.1H58.87v-10h9.45v69.73H48.7v57.86h96.19V169.94H125.58v-69.8h9.54v10h28.67V72.64H125.58V49.52h19.28v18h48.38Zm-53,106.77v48.91h-87v-49H73.09V100.14h3.13v77.23H56.38V220L68.5,207.46v5.35h57.26V188l11.17-10.54H117.75l-6.47,6.5v-83.8h9.57v74.18h19.38Zm19.07-97.18V105.4H139.73v-9.6H106.48v92.68h14.36v0h0V208H73.2V188.56h14V95.81H54.08v9.6H34.4V77.14H159.31ZM120.86,44.7V72.64H97.21V24l-21,18.11V72.64H73.09V44.8H44V62.45H5.5V5.1H188.58V62.45H149.22V44.7H120.86Z"/><polygon class="cls-1" points="152.35 59.49 169.01 43.71 169.01 24 152.35 41.42 152.35 59.49"/><path id="_" data-name="®" class="cls-1" d="M161.3,233.06a5.15,5.15,0,1,1,5.15-5.14A5.15,5.15,0,0,1,161.3,233.06Zm0-9.51a4.36,4.36,0,1,0,4.36,4.37A4.37,4.37,0,0,0,161.3,223.55Zm3,7.14h-1.76l-1.6-2.11h-0.51v2.11H159V225h2.31a5.79,5.79,0,0,1,.84.06,1.83,1.83,0,0,1,.65.25,1.38,1.38,0,0,1,.67,1.26,1.71,1.71,0,0,1-.3,1.07,2.08,2.08,0,0,1-.79.65Zm-2.33-4a0.77,0.77,0,0,0-.08-0.37,0.59,0.59,0,0,0-.27-0.24,1.2,1.2,0,0,0-.3-0.07l-0.41,0h-0.48v1.53h0.41a3,3,0,0,0,.51,0,0.74,0.74,0,0,0,.36-0.16,0.65,0.65,0,0,0,.2-0.26A0.92,0.92,0,0,0,161.95,226.69Z"/></g></g><path class="cls-1" d="M255.24,4.13V11h-2.66l-0.66-4.13-0.58-.5h-4.63v21l0.66,0.62,2.51,0.19V30H238.34V28.14l2.51-.19,0.66-.62v-21h-4.63l-0.62.5L235.63,11H233V4.13h22.27Zm8.43,24,2.35-.19,0.62-.62V6.76L266,6.22,263.68,6V4.13h19.45v6.06h-2.7l-0.58-3.4-0.5-.5h-7.68v9.19h5l0.54-.54,0.39-2.78h2.28v9h-2.28l-0.39-2.78-0.54-.54h-5v10h9l0.5-.62,0.66-4.09h2.62V30H263.68V28.14ZM304,4.13V6l-2.32.19-0.31.5,4.4,7.18,5-7.06-0.35-.54L308.27,6V4.13h8.64V6l-2.39.31L307.35,16l7.41,11.66,2.59,0.5V30H306.15V28.17l2.43-.31,0.27-.5-4.71-7.72-5.48,7.64,0.23,0.66,2.51,0.23V30h-8.91V28.17l2.47-.39,7.53-10.3-7-11.11L293,6V4.13H304Zm34.72-.27,8.88,23.89,2.28,0.38V30H339.4V28.14l2.43-.23,0.27-.5-2.32-6.56h-8.41l-2.32,6.52,0.39,0.5,2.43,0.27V30h-8.3V28.14l2.32-.35,8.72-23.93h4.05Zm-6.56,14.82h6.79l-3.44-9.53Zm26.23,3.51h2.93l0.62,4.63,0.5,0.58a10.94,10.94,0,0,0,3.4.54c3.13,0,5-1.54,5-3.67s-1.39-3.47-4.13-4.86a22.71,22.71,0,0,1-5.06-2.86,7,7,0,0,1-2.7-5.29c0-4.28,3.59-7.6,9.11-7.6A22,22,0,0,1,375.24,5v6.25h-2.78l-0.66-4-0.54-.54a6.2,6.2,0,0,0-2.82-.54c-2.82,0-4.55,1.54-4.55,3.67,0,1.78,1.08,2.93,3.13,4.17,1.2,0.73,3.24,1.31,5.52,2.78A6.87,6.87,0,0,1,376,22.54c0,4.59-3.9,7.91-10.23,7.91a22.56,22.56,0,0,1-7.45-1.27v-7ZM426,4.13V11H423.3l-0.66-4.13-0.58-.5h-4.63v21l0.66,0.62,2.51,0.19V30H409.06V28.14l2.51-.19,0.66-.62v-21h-4.63l-0.62.5L406.36,11h-2.66V4.13H426Zm8.44,24,2.35-.19,0.62-.62V6.76l-0.62-.54L434.39,6V4.13h19.45v6.06h-2.7l-0.58-3.4-0.5-.5h-7.68v9.19h5l0.54-.54,0.38-2.78h2.28v9h-2.28l-0.38-2.78-0.54-.54h-5v10h9l0.5-.62,0.66-4.09h2.62V30H434.39V28.14Zm43.9,2.35a13.93,13.93,0,0,1-7.1-1.74,13.32,13.32,0,0,1-6.41-11.66,13.32,13.32,0,0,1,4-9.88,13.46,13.46,0,0,1,9.73-3.55A23.26,23.26,0,0,1,486.4,5.1v6.44h-2.86l-0.73-4.13-0.54-.66a8.67,8.67,0,0,0-3-.58c-5.29,0-8.76,4.05-8.76,10.88s3.51,11,9.26,11a9.9,9.9,0,0,0,2.35-.35l0.58-.58,1-4.67h2.78V29.1A23.87,23.87,0,0,1,478.3,30.49ZM506.84,4.13V6l-2.31.19-0.62.62v8.45h11.15V6.83l-0.58-.62L512.17,6V4.13H523V6l-2.24.19-0.62.62V27.33l0.62,0.62L523,28.14V30H512.17V28.14l2.32-.19,0.58-.62V17.6H503.91v9.73l0.62,0.62,2.31,0.19V30H495.92V28.14l2.24-.19,0.62-.62V6.83l-0.62-.62L495.92,6V4.13h10.92Zm54.19,0V6l-2.39.19-0.54.54V20.26c0,5,1.66,7.18,6.29,7.18,4.28,0,5.87-2.39,5.87-7.53v-13l-0.58-.66L567.21,6V4.13H576V6l-2.35.23-0.54.66V20.3c0,7.06-2.93,10.19-10.19,10.19-3.82,0-6.68-1.16-8.26-3.16s-1.7-4.25-1.7-7.22V6.76l-0.54-.54L550,6V4.13H561Zm23.29,24,2.28-.31,0.69-.7V6.76l-0.54-.54L584.29,6V4.13h8.88v1L605,23.5V7l-0.69-.73-2.35-.31V4.13h8.8V5.94l-2.28.31L607.79,7V30h-4.32L590.11,9.3V27.17l0.62,0.7,2.39,0.31V30h-8.8V28.17Zm35.14,0,2.55-.19,0.62-.62V6.76L622,6.22,619.46,6V4.13H631V6l-2.59.19-0.62.54V27.33l0.62,0.62L631,28.14V30H619.46V28.14Zm29.24-24V6l-2.24.19L646,6.79l6.41,17.6,6.22-17.6-0.43-.58L655.92,6V4.13h8.45V6l-2.51.5L653.3,30.11h-3.9L640.64,6.48,638.09,6V4.13h10.61Zm22.75,24,2.35-.19,0.62-.62V6.76l-0.62-.54L671.46,6V4.13h19.45v6.06h-2.7l-0.58-3.4-0.5-.5h-7.68v9.19h5l0.54-.54,0.38-2.78h2.28v9h-2.28L685,18.33l-0.54-.54h-5v10h9l0.5-.62,0.66-4.09h2.63V30H671.46V28.14Zm41.74-24c6,0,9.07,2.32,9.07,6.6,0,3.55-2.28,5.79-6.64,6.6a6.41,6.41,0,0,1,4.05,2.39c1.2,1.7,1.5,3.78,2.24,5.71,0.81,2.12,2,2.7,4.56,2.7H727V30a27.86,27.86,0,0,1-3.86.31,6.54,6.54,0,0,1-4-1.2c-2-1.54-2.35-3.28-3-5.13-1.2-3.67-2.2-5.33-6.1-5.33h-0.66v8.68L710,27.94l2.36,0.19V30H701.47V28.14l2.28-.19,0.62-.62V6.76l-0.62-.54L701.47,6V4.13H713.2ZM709.38,16.4c0.5,0,1,0,1.39,0,4.13,0,6.1-1.62,6.1-5.17,0-3.16-2-4.94-5.71-4.94h-1.78V16.4Zm26,5.79h2.93l0.62,4.63,0.5,0.58a11,11,0,0,0,3.4.54c3.13,0,5-1.54,5-3.67s-1.39-3.47-4.13-4.86a22.67,22.67,0,0,1-5.06-2.86,7,7,0,0,1-2.7-5.29c0-4.28,3.59-7.6,9.11-7.6A22,22,0,0,1,752.28,5v6.25H749.5l-0.66-4-0.54-.54a6.19,6.19,0,0,0-2.82-.54c-2.82,0-4.55,1.54-4.55,3.67,0,1.78,1.08,2.93,3.13,4.17,1.19,0.73,3.24,1.31,5.52,2.78a6.88,6.88,0,0,1,3.48,5.79c0,4.59-3.9,7.91-10.23,7.91a22.55,22.55,0,0,1-7.45-1.27v-7Zm27.73,5.94,2.55-.19,0.62-.62V6.76l-0.62-.54L763.1,6V4.13h11.54V6l-2.59.19-0.62.54V27.33l0.62,0.62,2.59,0.19V30H763.1V28.14Zm42.33-24V11h-2.66l-0.66-4.13-0.58-.5H796.9v21l0.66,0.62,2.51,0.19V30H788.53V28.14l2.51-.19,0.66-.62v-21h-4.63l-0.62.5L785.83,11h-2.66V4.13h22.27Zm17.43,0V6l-2.16.19-0.35.46,5.29,9.8L831.16,7l-0.31-.62L828.53,6V4.13h8.41V6l-2.28.43-7.33,12.47v8.45L828,27.9l2.63,0.19V30H819V28.1l2.59-.19,0.62-.54V19.84L814.79,6.41,812.32,6V4.13h10.54ZM268.51,119.32a32.28,32.28,0,0,1-15.92-3.75c-10-5.71-16.2-16.58-16.2-28.85,0-19.48,13-32.5,32.5-32.5a62.14,62.14,0,0,1,18.55,3.19V71.83h-5.25l-1.4-8.52-1.22-1.69a24.57,24.57,0,0,0-10.49-2.44c-14,0-23,10.12-23,26.88,0,17.8,9.27,28.29,24.45,28.29a28.19,28.19,0,0,0,8.15-1.22l1.5-1.5,2.06-10.4h5.25V116A57.86,57.86,0,0,1,268.51,119.32Zm70.07-23.7c0,13.86-9.27,23.42-21.82,23.42S295,109.48,295,95.62s9.09-23.42,21.73-23.42S338.58,81.76,338.58,95.62Zm-34.75,0c0,12.08,5.43,19.39,12.93,19.39s13-7.21,13-19.39-5.43-19.39-13-19.39S303.83,83.44,303.83,95.62Zm40.84,19.2,5.53-.47,1.59-1.5V55.53h-7.21v-2.9L356,49.25h3.56v63.6l1.69,1.5,5.34,0.47v3.37H344.67v-3.37Zm26.42,0,5.53-.47,1.59-1.5V55.53H371v-2.9l11.43-3.37H386v63.6l1.69,1.5,5.34,0.47v3.37H371.08v-3.37Zm65.76-1.41A31.81,31.81,0,0,1,419.23,119c-12.36,0-20.89-9.27-20.89-23,0-14.14,9.09-23.79,21.64-23.79,10.21,0,16.86,6.93,16.86,18.45,0,0.94,0,1.87-.09,2.9H406.4v1c0,12,6.28,19.11,15.74,19.11,4.68,0,9.37-1.87,14.71-5.43v5.15ZM428.5,88.13c0-7.59-3.47-11.71-9.74-11.71-6,0-11.33,5.25-11.9,13.21H428.5v-1.5Zm60.33-13.3v4.4h-10.3a15.13,15.13,0,0,1,2.62,8.71c0,8.34-7,14.61-17.89,14.61h-1.59a9.36,9.36,0,0,0-1,4.22c0,0.47.09,1.22,0.19,2.25l9,1.4c11.05,1.69,15.92,4.59,15.92,11.52,0,3.47-2,7.5-5.62,10.49a29.13,29.13,0,0,1-18.55,6.18c-10.77,0-17-4.59-17-12.08,0-6,3.75-10.49,10.12-11.61a10.67,10.67,0,0,1-.94-4.21c0-2.43,1.5-5.34,4.5-8.9-7.21-1.59-11.61-7.12-11.61-14.14,0-9.09,7.12-15.45,18.17-15.45a23.25,23.25,0,0,1,10.58,2.62h13.39Zm-36.72,49.74c0,5.43,5.06,9.74,12.74,9.74,8.34,0,14-4.68,14-9.93,0-5.06-3-6.09-9.55-7.31l-9.08-1.69C455,117,452.11,120.44,452.11,124.56Zm2.62-37.18c0,7,3.75,11.52,9.18,11.52s9.18-4.5,9.18-11.52-3.75-11.52-9.18-11.52S454.74,80.16,454.74,87.38Zm77.09,26A31.81,31.81,0,0,1,514.22,119c-12.36,0-20.89-9.27-20.89-23,0-14.14,9.09-23.79,21.64-23.79,10.21,0,16.86,6.93,16.86,18.45,0,0.94,0,1.87-.09,2.9H501.39v1c0,12,6.28,19.11,15.74,19.11,4.68,0,9.37-1.87,14.71-5.43v5.15Zm-8.34-25.29c0-7.59-3.47-11.71-9.74-11.71-6,0-11.33,5.25-11.9,13.21h21.64v-1.5ZM604,91.31a30.74,30.74,0,0,1-7.59,20.14A21.14,21.14,0,0,1,579.89,119c-9.65,0-15.92-6.93-15.92-17.8a31.71,31.71,0,0,1,7.49-20.51A21.8,21.8,0,0,1,588,73C597.78,73,604,80,604,91.31Zm-32,10c0,9,3.47,13.86,9.08,13.86,8,0,15-10.21,15-24.45,0-9.27-3.47-14.14-9.18-14.14C578.76,76.6,571.92,86.81,571.92,101.33ZM634.4,53.75C630.84,56.09,628,63.4,626,75.57h13.21v4.22h-14l-3.75,26.6c-1.22,8.62-2.9,15.64-7,21.45-5,7-10.12,10.58-14.61,10.58a4.75,4.75,0,0,1-5.06-5,4.56,4.56,0,0,1,2.06-3.75l9.74,2.53c4.4-4.59,6-13.11,7.77-25.57l3.93-26.88-6.28.66,0.09-3.09,7.12-2.9c3.09-16.11,11-24.82,19.67-24.82,4.5,0,7.78,2.72,7.78,5.53,0,2.43-1.69,4.31-4.59,4.87Zm30.82,60.6,5.62-.75,1.69-1.78V61l-1.22-1.31-6.18-.56V55.34H685v2.53l17.61,47,17.8-46.65v-2.9h20v3.75l-5.9.56L733.41,61v51.61l1.12,1.31,5.9,0.47v3.84H718.05v-3.84l6.18-.47,0.94-1.31V59.74L703,118.19h-4L677.59,60.68v51.14l1.68,1.78,5.72,0.75v3.84H665.22v-3.84Zm120.18-.94A31.81,31.81,0,0,1,767.8,119c-12.36,0-20.89-9.27-20.89-23,0-14.14,9.08-23.79,21.63-23.79,10.21,0,16.86,6.93,16.86,18.45,0,0.94,0,1.87-.09,2.9H755v1c0,12,6.27,19.11,15.73,19.11,4.68,0,9.37-1.87,14.71-5.43v5.15Zm-8.34-25.29c0-7.59-3.47-11.71-9.74-11.71-6,0-11.34,5.25-11.9,13.21h21.64v-1.5Zm41-32.6v-2.9l11.43-3.37h3.56v63.6l1.59,1.5,4.5,0.47v3.37H825.31v-4.87c-4.78,3.84-9.27,5.71-14.42,5.71-10.21,0-18.08-8.8-18.08-21.92,0-15,9.93-25,24.17-25a38.25,38.25,0,0,1,8.34,1V55.53H818.1Zm7.21,22.2a30.88,30.88,0,0,0-8.24-1.5c-9.46,0-16,7.59-16,19.3,0,11,5.62,17.61,14,17.61a19.28,19.28,0,0,0,10.21-3.28V77.73ZM860,72.67v40.18l1.69,1.5,5.06,0.47v3.37H845.64v-3.37l5-.47,1.59-1.5V78.95h-6.56V76l10.77-3.37H860Zm2.25-15.36a5.43,5.43,0,1,1-5.43-5.43A5.44,5.44,0,0,1,862.22,57.31Zm22.29,61.54c-7.4,0-12-5-12-12,0-9.74,8.62-12.55,27.35-17v-3c0-7.4-1.87-10.49-8.62-10.49a18.34,18.34,0,0,0-7.12,1.5v7.87h-6.46c-2.16,0-2.91-.66-2.91-2.9,0-5.71,7.12-10.58,18.92-10.58,9.83,0,14,4,14,13.49v27.16l1.68,1.5,5,0.47v3.37H901.09l-1.22-5.43C894,116.79,889,118.85,884.52,118.85Zm15.36-25.76c-13.21,3.65-19.11,6.18-19.11,13,0,4.59,2.81,7.68,7.5,7.68,3.09,0,6.93-1.5,11.61-4.22V93.09ZM294.64,184.84l-6.65.84c-4,7.59-8.05,13.3-11.8,17,3.84,5.71,8.15,8.15,14.24,8.15h1v3.75l-6.65.37c-1.12.09-1.87,0.09-2.34,0.09-4.68,0-7.4-2.25-11.62-7.31-6.37,5.34-13.49,8-20.61,8-9.55,0-16-6.46-16-15.27,0-8.06,5.25-14.52,16.11-20-3.37-4.78-5.15-8.71-5.15-12.46,0-9.37,8.24-17.33,20.14-17.33,8.43,0,13.68,5.06,13.68,12.27,0,7.87-6.56,14.24-19.11,18.08l14,18.54c2.53-2.25,5.15-6.37,8.15-12.17l-1.12-1.5-4.59-.94v-3.93h18.36v3.93Zm-42.15-1.59c-6.65,4.12-9.84,8.34-9.84,14.33,0,7.21,5.15,12.55,12.27,12.55,4.59,0,9.27-1.78,13.67-5.34Zm18.83-19.77c0-5.34-3.18-8.71-8-8.71-6.37,0-11.15,4.68-11.15,10.77,0,3.93,1.87,8.06,5.53,12.83C266.82,175.1,271.32,170.32,271.32,163.48Zm89.18,52.27A32.28,32.28,0,0,1,344.58,212c-10-5.71-16.2-16.58-16.2-28.85,0-19.48,13-32.5,32.5-32.5a62.14,62.14,0,0,1,18.55,3.19v14.42h-5.25l-1.4-8.52L371.55,158a24.59,24.59,0,0,0-10.49-2.44c-14,0-23,10.12-23,26.88,0,17.8,9.27,28.29,24.45,28.29a28.15,28.15,0,0,0,8.15-1.22l1.5-1.5,2.06-10.4h5.25v14.8A57.86,57.86,0,0,1,360.5,215.75ZM430.57,192c0,13.86-9.27,23.42-21.82,23.42S387,205.91,387,192s9.09-23.42,21.73-23.42S430.57,178.19,430.57,192Zm-34.75,0c0,12.08,5.43,19.39,12.93,19.39s13-7.21,13-19.39-5.43-19.39-13-19.39S395.82,179.87,395.82,192Zm96.85-23.42c7.4,0,12.08,5,12.08,14.24v26.42l1.59,1.5,5,0.47v3.37H490.89v-3.37l4.4-.47,1.69-1.5V184.46c0-6.55-2.62-9.65-8.43-9.65-3,0-6.56,1.12-10.58,3.09v31.38l1.69,1.5,4.4,0.47v3.37h-20v-3.37l4.5-.47,1.59-1.5V184.46c0-6.55-2.62-9.65-8.24-9.65-3.09,0-6.56,1-10.68,3.09v31.38l1.59,1.5,4.5,0.47v3.37H436.85v-3.37l5.06-.47,1.59-1.5V175.38h-6.65v-2.91l10.86-3.37h3.56v5.15c6.18-3.65,11.05-5.62,15-5.62a11,11,0,0,1,10.3,6.28C483.58,170.79,488.92,168.63,492.67,168.63Zm79,0c7.4,0,12.08,5,12.08,14.24v26.42l1.59,1.5,5,0.47v3.37H569.86v-3.37l4.4-.47,1.69-1.5V184.46c0-6.55-2.62-9.65-8.43-9.65-3,0-6.56,1.12-10.58,3.09v31.38l1.69,1.5,4.4,0.47v3.37h-20v-3.37l4.5-.47,1.59-1.5V184.46c0-6.55-2.62-9.65-8.24-9.65-3.09,0-6.56,1-10.68,3.09v31.38l1.59,1.5,4.5,0.47v3.37H515.81v-3.37l5.06-.47,1.59-1.5V175.38h-6.65v-2.91l10.86-3.37h3.56v5.15c6.18-3.65,11.05-5.62,15-5.62a11,11,0,0,1,10.3,6.28C562.55,170.79,567.89,168.63,571.64,168.63Zm37.19,0v31c0,6.74,2.81,9.93,9.08,9.93a24.67,24.67,0,0,0,10.87-2.81V175h-6.65v-2.9L633,168.63h3.56v40.65l1.69,1.5,4.4,0.47v3.37H628.78v-5.25c-5.62,4-10.58,6.18-15.17,6.18-8.06,0-12.55-5-12.55-14.33V175h-6.65v-2.9l10.87-3.47h3.56Zm39.25,42.62,5.06-.47,1.59-1.5V175.38h-6.65v-2.91l10.87-3.37h3.56v5.15c6.27-3.47,11.05-5.62,15.08-5.62,8.15,0,12.65,4.87,12.65,14.24v26.42l1.59,1.5,5.06,0.47v3.37H676.37v-3.37l4.5-.47,1.59-1.5V184.46c0-6.84-2.53-9.65-9.46-9.65-3,0-6.46,1-10.49,3.09v31.38l1.59,1.5,4.49,0.47v3.37H648.08v-3.37Zm68-42.15v40.18l1.69,1.5,5.06,0.47v3.37H701.76v-3.37l5-.47,1.59-1.5V175.38h-6.56v-2.91l10.77-3.37h3.56Zm2.25-15.36a5.43,5.43,0,1,1-5.44-5.43A5.44,5.44,0,0,1,718.34,153.74Zm30.91,61.54c-12.74,0-21.08-9.37-21.08-23.23s9.09-23.42,22.2-23.42c9,0,14.05,3.75,14.05,9.18,0,3-2.06,5-5.24,5a7.56,7.56,0,0,1-4.22-1.4v-7.68a8.65,8.65,0,0,0-4.49-1.31c-8.06,0-13.77,7.21-13.77,19,0,11.52,6.18,18.36,15.92,18.36a21,21,0,0,0,11.9-3.93v4.87C759.36,213.69,754.31,215.28,749.25,215.28Zm33.16,0c-7.4,0-12-5-12-12,0-9.74,8.62-12.55,27.35-17v-3c0-7.4-1.88-10.49-8.62-10.49a18.34,18.34,0,0,0-7.12,1.5v7.87h-6.46c-2.16,0-2.9-.66-2.9-2.9,0-5.71,7.12-10.58,18.92-10.58,9.83,0,14,4,14,13.49v27.16l1.69,1.5,5,0.47v3.37H799l-1.22-5.43C791.87,213.22,786.91,215.28,782.41,215.28Zm15.36-25.76c-13.21,3.65-19.11,6.18-19.11,13,0,4.59,2.81,7.68,7.49,7.68,3.09,0,6.93-1.5,11.62-4.22V189.52Zm18.55-14.33v-2.9l6.18-2.72,4-8.71H830v9.93h14.24v4.4H830v24.73c0,7.12,1.22,10.21,7.78,10.21a30.44,30.44,0,0,0,6.46-.75v3.47A40.93,40.93,0,0,1,832,214.9c-7.77,0-9.74-2.81-9.74-9.46V175.19h-5.9Zm46.55-6.09v40.18l1.69,1.5,5.06,0.47v3.37H848.54v-3.37l5-.47,1.59-1.5V175.38h-6.56v-2.91l10.77-3.37h3.56Zm2.25-15.36a5.43,5.43,0,1,1-5.43-5.43A5.44,5.44,0,0,1,865.12,153.74ZM918.52,192c0,13.86-9.27,23.42-21.82,23.42S875,205.91,875,192s9.09-23.42,21.73-23.42S918.52,178.19,918.52,192Zm-34.75,0c0,12.08,5.43,19.39,12.93,19.39s13-7.21,13-19.39-5.43-19.39-13-19.39S883.77,179.87,883.77,192Zm41,19.2,5.06-.47,1.59-1.5V175.38H924.8v-2.91l10.86-3.37h3.56v5.15c6.28-3.47,11.05-5.62,15.08-5.62,8.15,0,12.65,4.87,12.65,14.24v26.42l1.59,1.5,5.06,0.47v3.37H953.08v-3.37l4.5-.47,1.59-1.5V184.46c0-6.84-2.53-9.65-9.46-9.65-3,0-6.46,1-10.49,3.09v31.38l1.59,1.5,4.5,0.47v3.37H924.8v-3.37Zm54.81-35.78v-6.38h-2.38v-1.34h6.26v1.34h-2.32v6.38h-1.56Zm4.81,0v-7.71h2.44l1.4,5.31,1.41-5.31h2.44v7.71h-1.49v-6.15L989,175.47h-1.41l-1.66-6.15v6.15h-1.47Z"/></svg>